<svg width="153" height="64" viewBox="0 0 153 64" fill="none" xmlns="http://www.w3.org/2000/svg">
<path d="M29.001 46.3896C26.292 46.3896 24.0283 45.7959 22.21 44.6084C20.404 43.4209 19.0433 41.7943 18.1279 39.7285C17.2249 37.6628 16.7734 35.3187 16.7734 32.6963V32.3066C16.7734 29.6595 17.2497 27.3092 18.2021 25.2559C19.1546 23.1901 20.5215 21.5635 22.3027 20.376C24.084 19.1885 26.2116 18.5947 28.6855 18.5947C30.4297 18.5947 32.0254 18.8669 33.4727 19.4111C34.9199 19.9554 36.1198 20.6481 37.0723 21.4893V27.3154H34.1592L33.7695 23.0479C32.5202 22.0954 30.8193 21.6191 28.667 21.6191C26.8981 21.6191 25.4014 22.0768 24.1768 22.9922C22.9521 23.8952 22.0244 25.1445 21.3936 26.7402C20.7627 28.3359 20.4473 30.179 20.4473 32.2695V32.6963C20.4473 36.098 21.1956 38.7389 22.6924 40.6191C24.1891 42.487 26.3353 43.4209 29.1309 43.4209C29.9967 43.4209 30.8441 43.3158 31.6729 43.1055C32.5016 42.8952 33.1882 42.623 33.7324 42.2891L34.1406 38.5225H36.998V44.3857C35.9837 45.0166 34.7715 45.5114 33.3613 45.8701C31.9512 46.2165 30.4977 46.3896 29.001 46.3896ZM49.3926 46.3896C47.6113 46.3896 46.0589 46.068 44.7354 45.4248C43.4242 44.7692 42.4036 43.8662 41.6738 42.7158C40.9564 41.5654 40.5977 40.2357 40.5977 38.7266C40.5977 37.2422 41.0182 35.9434 41.8594 34.8301C42.7005 33.7168 43.9561 32.5973 45.626 31.4717C45.6755 31.4469 45.7373 31.4098 45.8115 31.3604C44.8467 30.1357 44.1292 29.0472 43.6592 28.0947C43.1891 27.1299 42.9541 26.1403 42.9541 25.126C42.9541 23.0355 43.554 21.4274 44.7539 20.3018C45.9661 19.1637 47.6299 18.5947 49.7451 18.5947C51.0563 18.5947 52.2067 18.8545 53.1963 19.374C54.1859 19.8936 54.959 20.5863 55.5156 21.4521C56.0723 22.318 56.3506 23.2829 56.3506 24.3467C56.3506 25.5589 56.0228 26.6104 55.3672 27.501C54.724 28.3792 53.7653 29.2822 52.4912 30.21L50.4688 31.6943L56.7773 39.2832C57.2845 38.4792 57.6803 37.5885 57.9648 36.6113C58.2493 35.6341 58.3916 34.6012 58.3916 33.5127H61.6572C61.6572 36.7412 60.7171 39.4873 58.8369 41.751L62.2695 45.9072L62.2324 46H57.9834L56.4062 44.1074C54.3652 45.6289 52.0273 46.3896 49.3926 46.3896ZM48.6133 29.4678L51.1738 27.7051C51.8789 27.235 52.3551 26.7279 52.6025 26.1836C52.8623 25.627 52.9922 25.0146 52.9922 24.3467C52.9922 23.5921 52.6891 22.9242 52.083 22.3428C51.4893 21.7614 50.71 21.4707 49.7451 21.4707C48.7432 21.4707 47.9701 21.8232 47.4258 22.5283C46.8815 23.221 46.6094 24.0745 46.6094 25.0889C46.6094 26.3258 47.2773 27.7855 48.6133 29.4678ZM49.3926 43.5322C51.1986 43.5322 52.8932 42.9447 54.4766 41.7695L47.7783 33.6982L47.0361 34.2363C45.9105 35.0775 45.1621 35.8815 44.791 36.6484C44.4323 37.4154 44.2529 38.1081 44.2529 38.7266C44.2529 40.1243 44.6921 41.2747 45.5703 42.1777C46.4486 43.0807 47.7227 43.5322 49.3926 43.5322ZM64.9043 46V43.6621L67.9287 43.1426V21.8604L64.9043 21.3408V18.9844H72.8086L81.5107 39.4873H81.6221L90.0459 18.9844H98.1914V21.3408L95.167 21.8604V43.1426L98.1914 43.6621V46H88.4873V43.6621L91.6787 43.1426V23.9756L91.5859 23.957L82.8096 45.0352H80.3789L71.3057 23.9941L71.2129 24.0127L71.3428 35.3125V43.1426L74.6084 43.6621V46H64.9043ZM101.68 46V43.6621L104.704 43.1426V21.8604L101.68 21.3408V18.9844H109.584L118.286 39.4873H118.397L126.821 18.9844H134.967V21.3408L131.942 21.8604V43.1426L134.967 43.6621V46H125.263V43.6621L128.454 43.1426V23.9756L128.361 23.957L119.585 45.0352H117.154L108.081 23.9941L107.988 24.0127L108.118 35.3125V43.1426L111.384 43.6621V46H101.68Z" fill="white"/>
<path d="M152.5 32C152.5 36.2448 150.446 40.3335 146.637 44.1003C142.826 47.869 137.286 51.2859 130.401 54.1661C116.632 59.9258 97.5752 63.5 76.5 63.5C55.4248 63.5 36.3684 59.9258 22.5993 54.1661C15.7137 51.2859 10.174 47.869 6.36334 44.1003C2.55448 40.3335 0.5 36.2448 0.5 32C0.5 27.7552 2.55448 23.6665 6.36334 19.8997C10.174 16.131 15.7137 12.7141 22.5993 9.83385C36.3684 4.07424 55.4248 0.5 76.5 0.5C97.5752 0.5 116.632 4.07424 130.401 9.83385C137.286 12.7141 142.826 16.131 146.637 19.8997C150.446 23.6665 152.5 27.7552 152.5 32Z" stroke="white"/>
</svg>
